<?xml version="1.0" encoding="UTF-8"?>
<svg version="1.1" xmlns="http://www.w3.org/2000/svg" width="565" height="565">
<path d="M0 0 C8.32908531 5.98914161 12.91038035 13.2509121 15.14453125 23.234375 C15.69572275 27.97348545 15.2112374 32.45722322 14.5546875 37.16796875 C14.50087934 42.89181201 16.75288064 46.90329151 20.53857422 51.0090332 C21.74939633 52.23929651 22.97152595 53.45850534 24.203125 54.66796875 C24.85290314 55.31920212 25.50268127 55.97043549 26.17214966 56.6414032 C27.5407724 58.00837364 28.91431681 59.37043236 30.29248047 60.7277832 C32.39724669 62.80351312 34.48263317 64.8973593 36.56640625 66.99414062 C37.902535 68.32403364 39.23973871 69.65284771 40.578125 70.98046875 C41.19912079 71.60440018 41.82011658 72.2283316 42.45993042 72.87117004 C45.59507878 75.93898123 48.16179842 78.36452372 52.5234375 79.4921875 C56.00584617 79.47975355 56.00584617 79.47975355 59.7109375 79.0546875 C65.01788313 78.5619043 69.84584624 78.51995362 75.08203125 79.62890625 C82.03477841 79.23955241 87.46472083 74.14356204 92.10546875 69.40625 C92.97675667 68.53714493 92.97675667 68.53714493 93.86564636 67.65048218 C95.08121253 66.43326806 96.29189051 65.21115412 97.49780273 63.984375 C99.33640439 62.11671323 101.1930724 60.26854263 103.05273438 58.421875 C104.23809651 57.23027712 105.42237946 56.03760452 106.60546875 54.84375 C107.43048637 54.02313583 107.43048637 54.02313583 108.27217102 53.1859436 C112.00782225 49.35819806 115.1878938 45.59863224 115.78466797 40.07373047 C115.73713379 39.30174316 115.68959961 38.52975586 115.640625 37.734375 C115.60445068 36.8671582 115.56827637 35.99994141 115.53100586 35.10644531 C115.4872583 34.20249023 115.44351074 33.29853516 115.3984375 32.3671875 C115.15815476 21.07876284 116.86734575 13.07972605 124.7109375 4.5546875 C133.15105408 -3.22207544 141.81885447 -5.92456865 153.078125 -5.7734375 C163.39099682 -4.97834081 170.83054361 -0.25194627 177.5234375 7.4921875 C183.88597689 16.01367239 184.93954011 25.06466394 183.87353516 35.38134766 C182.27766105 45.00333339 176.16445755 52.34731226 168.53515625 57.953125 C159.05968301 63.94675158 148.65332162 63.99201322 137.91015625 62.09765625 C132.61626827 62.71436062 130.19534779 65.81127283 126.5234375 69.4921875 C125.50621125 70.48264631 124.48764225 71.47172721 123.46801758 72.4597168 C120.57833523 75.27221868 117.7175891 78.11233778 114.86645508 80.96386719 C113.07065218 82.75745396 111.26695388 84.54285153 109.46289062 86.328125 C108.31722075 87.47086554 107.17202089 88.61407754 106.02734375 89.7578125 C105.48888321 90.28908752 104.95042267 90.82036255 104.39564514 91.36773682 C101.47476168 94.3067879 99.57633192 96.27939453 99.47338867 100.5859375 C99.51943237 101.77703125 99.51943237 101.77703125 99.56640625 102.9921875 C99.92556573 115.88306899 99.94201385 125.5609597 91.3359375 135.8671875 C84.45076222 143.01368132 77.52884273 146.53122943 67.63476562 146.78515625 C56.19501343 146.88506675 48.09147761 145.05257704 39.5703125 136.87890625 C32.61591124 128.76986204 30.27956109 120.03306778 30.5234375 109.4921875 C30.72625634 107.88447715 30.95256314 106.27940958 31.2109375 104.6796875 C31.89906438 99.7399303 30.11830323 96.61645877 27.5234375 92.4921875 C25.55916466 90.03802995 23.39729539 87.84931651 21.1484375 85.65625 C20.54209473 85.05082367 19.93575195 84.44539734 19.31103516 83.82162476 C18.03826536 82.55485434 16.76068113 81.2929042 15.47851562 80.03564453 C13.51821051 78.11205842 11.57459133 76.17273743 9.6328125 74.23046875 C8.38896353 72.99644491 7.14420316 71.76333889 5.8984375 70.53125 C5.31916504 69.95420319 4.73989258 69.37715637 4.14306641 68.78262329 C0.2876833 64.94593343 0.2876833 64.94593343 -4.4765625 62.4921875 C-7.85004058 62.54542757 -7.85004058 62.54542757 -11.5390625 62.9921875 C-23.56411808 64.04717053 -33.22272455 61.91412406 -42.6640625 54.3046875 C-48.93570303 48.56287122 -52.94866463 40.67295261 -53.8125 32.1953125 C-53.94067274 20.86484208 -51.50520383 11.7884502 -43.4765625 3.4921875 C-30.53923877 -7.27264224 -14.52067961 -8.84066614 0 0 Z " fill="#000000" transform="translate(215.4765625,336.5078125)"/>
<path d="M0 0 C8.18837434 5.92119558 13.9267704 12.95701181 16 23 C16.03480456 24.57910851 16.01653054 26.15991029 15.95703125 27.73828125 C15.93576172 28.64126953 15.91449219 29.54425781 15.89257812 30.47460938 C15.83951271 32.35519598 15.77455139 34.23548736 15.69726562 36.11523438 C15.67116211 37.47551758 15.67116211 37.47551758 15.64453125 38.86328125 C15.61721924 39.68094971 15.58990723 40.49861816 15.56176758 41.34106445 C16.66305461 48.02302381 21.2542481 52.6979365 25.90234375 57.265625 C26.74171227 58.10574127 26.74171227 58.10574127 27.59803772 58.96282959 C28.77359423 60.13606143 29.95280628 61.30564099 31.13549805 62.47167969 C32.93786033 64.2503556 34.72643342 66.04207873 36.51367188 67.8359375 C37.66327147 68.9799621 38.81363639 70.12321827 39.96484375 71.265625 C40.49520737 71.79690002 41.02557098 72.32817505 41.57200623 72.87554932 C46.76384232 78.05291018 46.76384232 78.05291018 53.52026367 80.27709961 C54.39400635 80.23593018 55.26774902 80.19476074 56.16796875 80.15234375 C57.14443359 80.12462891 58.12089844 80.09691406 59.12695312 80.06835938 C61.14799435 79.981946 63.16884311 79.89089099 65.18945312 79.79492188 C74.50991664 79.54433892 82.1865443 81.65730508 89.25 88 C96.12460974 94.59312966 100.68785458 102.86003346 101.10546875 112.49609375 C100.68642397 122.44452727 98.07812859 131.73057064 91 139 C81.41312404 146.57672455 72.21425066 149.28264207 60 148 C51.25472184 146.06173255 43.55159736 141.8091372 38.1796875 134.53515625 C32.49105856 125.39762426 31.7645275 118.32358212 32.25390625 107.78710938 C32.28677734 106.44036133 32.28677734 106.44036133 32.3203125 105.06640625 C32.35398926 104.26146729 32.38766602 103.45652832 32.42236328 102.62719727 C31.35138246 95.96544894 26.72560197 91.28226214 22.09765625 86.734375 C21.53807724 86.17429749 20.97849823 85.61421997 20.40196228 85.03717041 C19.22640577 83.86393857 18.04719372 82.69435901 16.86450195 81.52832031 C15.06213967 79.7496444 13.27356658 77.95792127 11.48632812 76.1640625 C10.33672853 75.0200379 9.18636361 73.87678173 8.03515625 72.734375 C7.50479263 72.20309998 6.97442902 71.67182495 6.42799377 71.12445068 C2.12438961 66.90171772 -1.86747333 63.59829528 -8 63 C-10.00240549 63.31856451 -12.00211562 63.65421232 -14 64 C-18.33281224 64.21386825 -22.35413888 64.1224909 -26.625 63.3125 C-31.45901956 62.8649056 -35.00121873 64.44465822 -38.76333618 67.37213135 C-40.62158995 69.04601182 -42.4054163 70.7724881 -44.17578125 72.5390625 C-44.82701462 73.17935394 -45.47824799 73.81964539 -46.1492157 74.4793396 C-47.51648724 75.83081326 -48.87854108 77.18758395 -50.2355957 78.54931641 C-52.30495525 80.61745969 -54.40188318 82.65451294 -56.50195312 84.69140625 C-57.83251703 86.01382856 -59.16135303 87.33799215 -60.48828125 88.6640625 C-61.11221268 89.26441315 -61.7361441 89.86476379 -62.37898254 90.48330688 C-66.70915759 94.90626358 -68.39193539 98.834116 -69 105 C-68.96830692 108.13488952 -68.96830692 108.13488952 -68.5 111 C-67.48601498 120.88948357 -70.04114654 128.03728432 -76 136 C-82.21386642 142.72740909 -89.82783496 147.52037953 -99.06640625 148.23828125 C-109.98226549 148.47001457 -117.86682497 146.96514586 -126.375 139.875 C-133.62245503 132.90407743 -137.08246721 124.90155207 -137.3125 114.9375 C-137.21231446 105.00799989 -134.05553038 96.13375134 -127 89 C-117.02587959 80.85786089 -108.41573408 79.59631955 -95.95703125 80.20507812 C-95.01988281 80.23150391 -94.08273438 80.25792969 -93.1171875 80.28515625 C-91.85817627 80.34521851 -91.85817627 80.34521851 -90.57373047 80.40649414 C-84.31865238 79.41856917 -79.72024455 74.07343019 -75.359375 69.80078125 C-74.75111877 69.20629684 -74.14286255 68.61181244 -73.51617432 67.99931335 C-72.23938378 66.74567806 -70.96547901 65.4890976 -69.69433594 64.22973633 C-67.75705016 62.3194519 -65.79710355 60.43454581 -63.8359375 58.54882812 C-62.59226811 57.32181269 -61.35003117 56.09334332 -60.109375 54.86328125 C-59.52605408 54.30981522 -58.94273315 53.75634918 -58.34173584 53.18611145 C-54.11763979 48.9157458 -52.61767431 44.96261362 -52 39 C-52.06753037 35.9653498 -52.06753037 35.9653498 -52.5625 33.1875 C-53.52958261 23.91765933 -51.32783486 15.56530742 -45.79296875 8.03515625 C-34.67156384 -4.58848637 -14.87084224 -9.33516492 0 0 Z " fill="#000000" transform="translate(300,84)"/>
<path d="M0 0 C7.32237117 5.1795368 12.54503647 12.57895496 14.27734375 21.47265625 C15.57215136 32.28327213 13.66059149 41.57249372 7.2421875 50.4921875 C1.15594226 57.69885516 -7.1458896 61.71529408 -16.4609375 62.91015625 C-26.24554071 63.29038694 -35.07666269 60.4987272 -42.6953125 54.28515625 C-49.85385654 47.22080358 -53.51520626 38.62374965 -53.9140625 28.65234375 C-53.63501496 19.11619751 -50.21613166 10.35677383 -43.4765625 3.52734375 C-30.46145233 -7.27765337 -14.63313175 -8.70140484 0 0 Z " fill="#000000" transform="translate(120.4765625,254.47265625)"/>
<path d="M0 0 C8.8637569 5.56421965 14.76008571 12.34032954 17.91015625 22.36328125 C19.85023047 32.52014041 18.10382366 41.80468249 13.0234375 50.69921875 C8.40785325 57.48759893 1.38189192 62.67309315 -6.69140625 64.44921875 C-17.86064833 66.27530119 -27.30909262 65.04125323 -36.69140625 58.44921875 C-43.8724929 52.6305517 -47.82179288 45.48568335 -49.69140625 36.44921875 C-50.76024438 25.36705494 -47.69624047 16.056574 -40.69140625 7.44921875 C-30.72654764 -3.51701045 -13.37458664 -6.42792107 0 0 Z " fill="#000000" transform="translate(297.69140625,251.55078125)"/>
<path d="M0 0 C9.35403997 5.4391416 15.38680572 11.75923914 18.27734375 22.32421875 C19.31600918 34.54665384 18.61508916 44.34944341 10.58984375 54.13671875 C4.07539094 60.95220912 -3.31659952 64.53331908 -12.72265625 65.32421875 C-23.25306332 65.44491109 -32.25754999 62.52501092 -39.96875 55.25 C-47.8222933 46.62684444 -49.3001495 37.72705703 -49.03515625 26.46484375 C-48.76263867 21.40055873 -47.4970932 17.57257532 -44.72265625 13.32421875 C-44.31015625 12.63070313 -43.89765625 11.9371875 -43.47265625 11.22265625 C-34.33972962 -2.63240859 -14.7787418 -7.00822198 0 0 Z " fill="#000000" transform="translate(478.72265625,251.67578125)"/>
<path d="M0 0 C6.07829352 3.97426884 9.91695797 9.45684966 11.6015625 16.5234375 C12.66518594 24.56245185 11.17626213 31.33224732 6.6875 38.10546875 C1.38425802 44.05933995 -5.49000181 46.65307706 -13.25 47.25 C-21.29200493 46.71386634 -27.58289408 44.05027415 -33 38 C-37.7250033 31.36488898 -38.79063134 24.98652239 -38 17 C-36.20737426 9.31568714 -32.57005827 4.32398716 -26 0 C-17.58122419 -4.64942254 -8.56164881 -3.99759405 0 0 Z " fill="#000000" transform="translate(142,414)"/>
<path d="M0 0 C5.41252364 4.68137598 9.41938553 10.29702282 10.3125 17.53125 C10.65803909 25.21949479 9.28617358 32.06104251 4.26953125 38.07421875 C-1.24751364 43.32697407 -6.99866699 45.57128575 -14.5 46.375 C-23.10100399 45.45346386 -29.18850049 42.48054347 -35 36 C-39.47963381 30.37206569 -39.6040605 24.35505419 -39.38671875 17.34765625 C-38.56936323 10.27216452 -35.44364331 5.55746882 -30 1 C-20.33842314 -5.44105124 -10.12955691 -5.97727573 0 0 Z " fill="#000000" transform="translate(443,415)"/>
<path d="M0 0 C6.16165622 4.26020762 9.83504126 9.54009138 11.62890625 16.8046875 C12.69614297 24.21917416 11.42078141 31.2646537 7 37.3828125 C1.96962255 42.82076851 -2.63122101 45.91666487 -10.1484375 46.71875 C-18.56898263 46.82069365 -23.97521458 46.16367153 -30.19140625 40.32421875 C-36.48934872 33.64321716 -38.51991995 28.35301874 -38.30859375 19.19140625 C-37.51853291 12.00085249 -34.12999711 6.63142567 -28.83203125 1.82421875 C-20.77264199 -4.51675063 -9.00265435 -4.73301313 0 0 Z " fill="#000000" transform="translate(142,114.6171875)"/>
<path d="M0 0 C5.77851848 4.24124041 9.98840975 9.20036338 11.64453125 16.20703125 C12.42467034 23.70568162 11.6528444 29.74411592 7.64453125 36.20703125 C3.23066393 41.4339794 -2.16400092 45.79552669 -9.140625 46.48046875 C-17.94423408 46.75328619 -24.58533776 45.56064353 -31.234375 39.4921875 C-37.2231433 32.89732699 -37.90420357 26.61470461 -37.6640625 17.87890625 C-37.10669914 11.24698774 -34.86304162 7.36721148 -30.04296875 2.89453125 C-21.38091397 -3.79804581 -9.81575149 -5.84812141 0 0 Z " fill="#000000" transform="translate(441.35546875,114.79296875)"/>
<path d="M0 0 C4.54913821 4.52111477 6.37398104 9.14547493 6.5859375 15.5234375 C6.17663916 22.6969295 3.83203609 26.70685678 -1.375 31.6875 C-6.61549361 35.4606554 -11.07680311 36.49122387 -17.5 35.9375 C-24.51515891 34.53724101 -28.48697091 30.71315789 -32.5 24.9375 C-35.23876731 19.68819599 -34.60010333 14.59517425 -33.5 8.9375 C-31.6103365 3.4784721 -28.27217927 0.0485384 -23.5 -3.0625 C-15.80399808 -6.77220071 -6.58883375 -5.2080855 0 0 Z " fill="#000000" transform="translate(558.5,267.0625)"/>
<path d="M0 0 C4.62463924 3.363374 8.9187253 7.50617591 10.75 13 C11.70215468 25.68929215 11.70215468 25.68929215 7.75 31 C2.63109885 36.11890115 -1.00842445 39.11341335 -8.4375 39.3125 C-14.65395343 39.23859236 -19.19293374 37.84650302 -23.78125 33.57421875 C-28.52050869 28.24255272 -29.72837173 23.52911247 -29.5625 16.5625 C-28.88816725 11.03297146 -26.45913585 6.80018371 -22.3125 3.125 C-15.40473485 -1.66814316 -8.0418977 -2.47443006 0 0 Z " fill="#000000" transform="translate(291.25,526)"/>
<path d="M0 0 C4.53900386 4.58943723 7.02732697 8.77879552 7.375 15.25 C7.21113535 20.43329748 6.01255847 24.74086561 3 29 C-1.99421075 33.37107986 -6.64685309 35.74206562 -13.25 36.25 C-20.07194526 35.79520365 -24.31261583 34.14506541 -28.9375 29 C-33.32540328 23.72252179 -33.41048614 19.00270385 -33.3359375 12.30078125 C-32.84593382 7.48621018 -31.37979907 4.43667069 -28 1 C-19.37642219 -5.93711199 -8.88775326 -7.47379251 0 0 Z " fill="#000000" transform="translate(33,267)"/>
<path d="M0 0 C4.01997639 2.86138058 6.91754258 6.7095556 8.7890625 11.2734375 C9.565226 17.59104738 9.58187966 23.94673055 6.2265625 29.515625 C2.45236499 34.13081217 -1.51400377 36.88309183 -7.4765625 37.74609375 C-13.28631279 37.89863286 -18.43184414 37.88689833 -23.2109375 34.2734375 C-28.40319203 29.18175932 -31.22653394 24.8287105 -31.5859375 17.4609375 C-31.44763439 12.28993799 -30.38976903 8.3970884 -27.2109375 4.2734375 C-19.32954071 -3.13959759 -9.78969901 -5.49939267 0 0 Z " fill="#000000" transform="translate(293.2109375,2.7265625)"/>
</svg>
